<svg width="189" height="50" viewBox="0 0 189 50" fill="none" xmlns="http://www.w3.org/2000/svg">
<path d="M5.56378 39.0476L0 50L7.51239 39.0476L21.2069 19.0823L18.4971 13.5883L5.56378 39.0476Z" fill="url(#paint0_linear_14101_4192)"/>
<path d="M15.9051 8.33333L4.18078 39.0476L0 50L5.56378 39.0476L18.4971 13.5883L15.9051 8.33333Z" fill="url(#paint1_linear_14101_4192)"/>
<path d="M4.41753 43.5714L29.4104 35.7143L7.52616 39.0476L4.41753 43.5714Z" fill="url(#paint2_linear_14101_4192)"/>
<path d="M0 50L29.4104 35.7143L4.41753 43.5714L0 50Z" fill="url(#paint3_linear_14101_4192)"/>
<path d="M36.4815 49.9639L22.7566 16.8836L21.2469 19.0806L36.4815 49.9639Z" fill="url(#paint4_linear_14101_4192)"/>
<path d="M17.4956 4.16667L15.9051 8.33333L18.4971 13.5883L21.2069 19.0823L21.2307 19.0476L21.2469 19.0806L22.7566 16.8836L17.4956 4.16667Z" fill="url(#paint5_linear_14101_4192)"/>
<path d="M36.4815 49.9639L24.2146 14.7619L22.7566 16.8836L36.4815 49.9639Z" fill="url(#paint6_linear_14101_4192)"/>
<path d="M19.0862 0L17.4956 4.16667L22.7566 16.8836L24.2146 14.7619L21.6504 7.38095L19.0862 0Z" fill="url(#paint7_linear_14101_4192)"/>
<path d="M51.7717 36.2075H47.4948V19.566H42V16H57.2665V19.566H51.7717V36.2075Z" fill="white"/>
<path d="M67.2449 20.4717C68.9821 20.4717 70.3889 21.1509 71.4652 22.5094C72.5415 23.8491 73.0796 25.8302 73.0796 28.4528C73.0796 30.2075 72.8247 31.6887 72.3149 32.8962C71.8051 34.0849 71.1064 34.9811 70.2189 35.5849C69.3315 36.1887 68.3024 36.4906 67.1316 36.4906C66.3952 36.4906 65.7532 36.3962 65.2056 36.2075C64.6769 36.0189 64.2237 35.7736 63.8461 35.4717C63.4684 35.1698 63.138 34.8491 62.8547 34.5094H62.6282C62.7037 34.8679 62.7603 35.2453 62.7981 35.6415C62.8359 36.0189 62.8547 36.3962 62.8547 36.7736V43H58.6345V20.7547H62.0617L62.6565 22.7642H62.8547C63.138 22.3491 63.4779 21.9717 63.8744 21.6321C64.2709 21.2736 64.743 20.9906 65.2906 20.783C65.8571 20.5755 66.5085 20.4717 67.2449 20.4717ZM65.8854 23.8396C65.149 23.8396 64.5636 23.9906 64.1293 24.2925C63.695 24.5943 63.374 25.0566 63.1663 25.6792C62.9775 26.283 62.8736 27.0472 62.8547 27.9717V28.4245C62.8547 29.4245 62.9492 30.2736 63.138 30.9717C63.3268 31.6509 63.6478 32.1698 64.101 32.5283C64.5542 32.8868 65.1679 33.066 65.942 33.066C66.584 33.066 67.1128 32.8868 67.5282 32.5283C67.9436 32.1698 68.2552 31.6415 68.4629 30.9434C68.6706 30.2453 68.7744 29.3962 68.7744 28.3962C68.7744 26.8868 68.5384 25.7547 68.0663 25C67.6131 24.2264 66.8862 23.8396 65.8854 23.8396Z" fill="white"/>
<path d="M82.9027 20.4434C84.9798 20.4434 86.5659 20.8962 87.6611 21.8019C88.7752 22.6887 89.3322 24.0566 89.3322 25.9057V36.2075H86.3865L85.5651 34.1132H85.4518C85.0176 34.6604 84.5644 35.1132 84.0923 35.4717C83.6391 35.8302 83.1104 36.0849 82.5062 36.2359C81.9208 36.4057 81.1938 36.4906 80.3252 36.4906C79.4189 36.4906 78.5975 36.3208 77.8611 35.9811C77.1435 35.6226 76.577 35.0849 76.1616 34.3679C75.7462 33.6321 75.5385 32.7075 75.5385 31.5943C75.5385 29.9528 76.1144 28.7453 77.2663 27.9717C78.4181 27.1792 80.1458 26.7453 82.4495 26.6698L85.1403 26.5849V25.9057C85.1403 25.0943 84.9231 24.5 84.4888 24.1226C84.0734 23.7453 83.4881 23.5566 82.7328 23.5566C81.9775 23.5566 81.241 23.6698 80.5235 23.8962C79.806 24.1038 79.0884 24.3679 78.3709 24.6887L76.983 21.8302C77.8139 21.3962 78.7297 21.0566 79.7304 20.8113C80.7501 20.566 81.8075 20.4434 82.9027 20.4434ZM83.4975 29.1038C82.138 29.1415 81.1938 29.3868 80.6651 29.8396C80.1364 30.2925 79.8721 30.8868 79.8721 31.6226C79.8721 32.2642 80.0609 32.7264 80.4385 33.0094C80.8162 33.2736 81.3071 33.4057 81.9114 33.4057C82.8177 33.4057 83.5825 33.1415 84.2056 32.6132C84.8287 32.066 85.1403 31.3019 85.1403 30.3208V29.0472L83.4975 29.1038Z" fill="white"/>
<path d="M113.139 20.7547V36.2075H109.202V28.6226C109.202 27.8679 109.211 27.1321 109.23 26.4151C109.268 25.6981 109.315 25.0377 109.372 24.434H109.287L105.01 36.2075H101.838L97.5041 24.4057H97.3908C97.4663 25.0283 97.5135 25.6981 97.5324 26.4151C97.5702 27.1132 97.5891 27.8868 97.5891 28.7358V36.2075H93.652V20.7547H99.6284L103.48 31.2264L107.389 20.7547H113.139Z" fill="white"/>
<path d="M131.599 20.7547V36.2075H127.379V23.9245H121.771V36.2075H117.55V20.7547H131.599Z" fill="white"/>
<path d="M149.877 36.2075H145.657V23.9245H141.777C141.588 26.1887 141.352 28.1226 141.069 29.7264C140.804 31.3113 140.465 32.6038 140.049 33.6038C139.653 34.6038 139.143 35.3396 138.52 35.8113C137.897 36.2642 137.132 36.4906 136.225 36.4906C135.734 36.4906 135.291 36.4528 134.894 36.3774C134.498 36.3019 134.139 36.1887 133.818 36.0377V32.6698C134.026 32.7453 134.243 32.8113 134.469 32.8679C134.696 32.9245 134.932 32.9528 135.177 32.9528C135.442 32.9528 135.687 32.8491 135.914 32.6415C136.159 32.434 136.386 32.066 136.594 31.5377C136.82 31.0094 137.028 30.283 137.217 29.3585C137.406 28.434 137.576 27.2736 137.727 25.8774C137.897 24.4623 138.048 22.7547 138.18 20.7547H149.877V36.2075Z" fill="white"/>
<path d="M158.361 26.8679C158.361 27.1887 158.342 27.5849 158.305 28.0566C158.286 28.5283 158.258 29.0094 158.22 29.5C158.201 29.9906 158.173 30.4245 158.135 30.8019C158.097 31.1792 158.069 31.4434 158.05 31.5943L165.187 20.7547H170.257V36.2075H166.179V30.0377C166.179 29.5283 166.198 28.9717 166.235 28.3679C166.273 27.7453 166.311 27.1698 166.349 26.6415C166.405 26.0943 166.443 25.6792 166.462 25.3962L159.353 36.2075H154.283V20.7547H158.361V26.8679Z" fill="white"/>
<path d="M178.888 20.7547V26.6981H184.78V20.7547H189V36.2075H184.78V29.8396H178.888V36.2075H174.668V20.7547H178.888Z" fill="white"/>
<defs>
<linearGradient id="paint0_linear_14101_4192" x1="19.7429" y1="16.4286" x2="-23.0216" y2="75.6927" gradientUnits="userSpaceOnUse">
<stop stop-color="#06A0F7"/>
<stop offset="1" stop-color="#06A0F7" stop-opacity="0"/>
</linearGradient>
<linearGradient id="paint1_linear_14101_4192" x1="17.1561" y1="10.9524" x2="-19.7923" y2="79.3343" gradientUnits="userSpaceOnUse">
<stop stop-color="#295DE1"/>
<stop offset="1" stop-color="#295DE1" stop-opacity="0"/>
</linearGradient>
<linearGradient id="paint2_linear_14101_4192" x1="10.9444" y1="41.9048" x2="36.8283" y2="35.4353" gradientUnits="userSpaceOnUse">
<stop stop-color="#5929E1"/>
<stop offset="1" stop-color="#5929E1" stop-opacity="0"/>
</linearGradient>
<linearGradient id="paint3_linear_14101_4192" x1="0.858388" y1="49.7619" x2="42.2195" y2="35.2865" gradientUnits="userSpaceOnUse">
<stop stop-color="#295DE1"/>
<stop offset="1" stop-color="#295DE1" stop-opacity="0"/>
</linearGradient>
<linearGradient id="paint4_linear_14101_4192" x1="22.3181" y1="18.3333" x2="40.6041" y2="54.2718" gradientUnits="userSpaceOnUse">
<stop stop-color="#2973E1"/>
<stop offset="1" stop-color="#2973E1" stop-opacity="0"/>
</linearGradient>
<linearGradient id="paint5_linear_14101_4192" x1="15.451" y1="5.23809" x2="25.756" y2="22.6814" gradientUnits="userSpaceOnUse">
<stop stop-color="#033279"/>
<stop offset="1" stop-color="#2A74E2" stop-opacity="0.73"/>
</linearGradient>
<linearGradient id="paint6_linear_14101_4192" x1="23.3911" y1="15.9524" x2="44.6147" y2="62.7379" gradientUnits="userSpaceOnUse">
<stop stop-color="#5929E1"/>
<stop offset="1" stop-color="#5929E1" stop-opacity="0"/>
</linearGradient>
<linearGradient id="paint7_linear_14101_4192" x1="18.2407" y1="-5.62933e-07" x2="30.7933" y2="28.6306" gradientUnits="userSpaceOnUse">
<stop stop-color="#5929E1"/>
<stop offset="0.0001" stop-color="#2C0F7E"/>
<stop offset="1" stop-color="#2C0F7E" stop-opacity="0.41"/>
</linearGradient>
</defs>
</svg>
